REM DIRINDEX 1\2,1\3
REM DIRNAME folder01,folder02,folder03
TITLE ""
FILE "sample sentencesTrack08.mp3" MP3
  TRACK 01 AUDIO
    TITLE "3:cjc143_2570"
    INDEX 01 00:00:00
  TRACK 02 AUDIO
    TITLE "0:"
    INDEX 01 00:00:56
  TRACK 03 AUDIO
    TITLE "3:cjc143_2571"
    INDEX 01 00:01:26
  TRACK 04 AUDIO
    TITLE "0:"
    INDEX 01 00:03:53
  TRACK 05 AUDIO
    TITLE "3:cjc143_2572"
    INDEX 01 00:04:74
  TRACK 06 AUDIO
    TITLE "0:"
    INDEX 01 00:08:62
  TRACK 07 AUDIO
    TITLE "3:cjc143_2573"
    INDEX 01 00:09:71
  TRACK 08 AUDIO
    TITLE "0:"
    INDEX 01 00:12:38
  TRACK 09 AUDIO
    TITLE "3:cjc143_2574"
    INDEX 01 00:13:47
  TRACK 10 AUDIO
    TITLE "0:"
    INDEX 01 00:16:20
  TRACK 11 AUDIO
    TITLE "3:cjc143_2575"
    INDEX 01 00:17:25
  TRACK 12 AUDIO
    TITLE "0:"
    INDEX 01 00:19:07
  TRACK 13 AUDIO
    TITLE "3:cjc143_2576"
    INDEX 01 00:20:12
  TRACK 14 AUDIO
    TITLE "0:"
    INDEX 01 00:22:11
  TRACK 15 AUDIO
    TITLE "3:cjc143_2577"
    INDEX 01 00:23:20
  TRACK 16 AUDIO
    TITLE "0:"
    INDEX 01 00:26:13
  TRACK 17 AUDIO
    TITLE "3:cjc143_2578"
    INDEX 01 00:27:22
  TRACK 18 AUDIO
    TITLE "0:"
    INDEX 01 00:29:23
  TRACK 19 AUDIO
    TITLE "3:cjc143_2579"
    INDEX 01 00:30:44
  TRACK 20 AUDIO
    TITLE "0:"
    INDEX 01 00:34:34
  TRACK 21 AUDIO
    TITLE "3:cjc143_2580"
    INDEX 01 00:35:41
  TRACK 22 AUDIO
    TITLE "0:"
    INDEX 01 00:38:08
  TRACK 23 AUDIO
    TITLE "3:cjc143_2581"
    INDEX 01 00:39:17
  TRACK 24 AUDIO
    TITLE "0:"
    INDEX 01 00:42:18
  TRACK 25 AUDIO
    TITLE "3:cjc143_2582"
    INDEX 01 00:43:31
  TRACK 26 AUDIO
    TITLE "0:"
    INDEX 01 00:45:37
  TRACK 27 AUDIO
    TITLE "3:cjc143_2583"
    INDEX 01 00:46:45
  TRACK 28 AUDIO
    TITLE "0:"
    INDEX 01 00:49:08
  TRACK 29 AUDIO
    TITLE "3:cjc143_2584"
    INDEX 01 00:50:15
  TRACK 30 AUDIO
    TITLE "0:"
    INDEX 01 00:52:55
  TRACK 31 AUDIO
    TITLE "3:cjc143_2585"
    INDEX 01 00:53:62
  TRACK 32 AUDIO
    TITLE "0:"
    INDEX 01 00:56:16
  TRACK 33 AUDIO
    TITLE "3:cjc143_2586"
    INDEX 01 00:57:21
  TRACK 34 AUDIO
    TITLE "0:"
    INDEX 01 01:00:49
  TRACK 35 AUDIO
    TITLE "3:cjc143_2587"
    INDEX 01 01:01:60
  TRACK 36 AUDIO
    TITLE "0:"
    INDEX 01 01:03:71
  TRACK 37 AUDIO
    TITLE "3:cjc143_2588"
    INDEX 01 01:05:15
  TRACK 38 AUDIO
    TITLE "0:"
    INDEX 01 01:07:31
  TRACK 39 AUDIO
    TITLE "3:cjc143_2589"
    INDEX 01 01:08:42
  TRACK 40 AUDIO
    TITLE "0:"
    INDEX 01 01:11:02
  TRACK 41 AUDIO
    TITLE "3:cjc143_2590"
    INDEX 01 01:12:05
  TRACK 42 AUDIO
    TITLE "0:"
    INDEX 01 01:14:51
  TRACK 43 AUDIO
    TITLE "3:cjc143_2591"
    INDEX 01 01:15:60
  TRACK 44 AUDIO
    TITLE "0:"
    INDEX 01 01:17:59
  TRACK 45 AUDIO
    TITLE "3:cjc143_2592"
    INDEX 01 01:18:68
  TRACK 46 AUDIO
    TITLE "0:"
    INDEX 01 01:21:08
  TRACK 47 AUDIO
    TITLE "3:cjc143_2593"
    INDEX 01 01:22:17
  TRACK 48 AUDIO
    TITLE "0:"
    INDEX 01 01:24:55
  TRACK 49 AUDIO
    TITLE "3:cjc143_2594"
    INDEX 01 01:25:68
  TRACK 50 AUDIO
    TITLE "0:"
    INDEX 01 01:27:38
  TRACK 51 AUDIO
    TITLE "3:cjc143_2595"
    INDEX 01 01:28:45
  TRACK 52 AUDIO
    TITLE "0:"
    INDEX 01 01:31:02
  TRACK 53 AUDIO
    TITLE "3:cjc143_2596"
    INDEX 01 01:32:13
  TRACK 54 AUDIO
    TITLE "0:"
    INDEX 01 01:34:05
  TRACK 55 AUDIO
    TITLE "3:cjc143_2597"
    INDEX 01 01:35:14
  TRACK 56 AUDIO
    TITLE "0:"
    INDEX 01 01:38:65
  TRACK 57 AUDIO
    TITLE "3:cjc143_2598"
    INDEX 01 01:40:01
  TRACK 58 AUDIO
    TITLE "0:"
    INDEX 01 01:41:67
  TRACK 59 AUDIO
    TITLE "3:cjc143_2599"
    INDEX 01 01:42:73
  TRACK 60 AUDIO
    TITLE "0:"
    INDEX 01 01:45:63
  TRACK 61 AUDIO
    TITLE "3:cjc143_2600"
    INDEX 01 01:46:70
  TRACK 62 AUDIO
    TITLE "0:"
    INDEX 01 01:48:34
  TRACK 63 AUDIO
    TITLE "3:cjc143_2601"
    INDEX 01 01:49:41
  TRACK 64 AUDIO
    TITLE "0:"
    INDEX 01 01:52:04
  TRACK 65 AUDIO
    TITLE "3:cjc143_2602"
    INDEX 01 01:53:20
  TRACK 66 AUDIO
    TITLE "0:"
    INDEX 01 01:54:72
  TRACK 67 AUDIO
    TITLE "3:cjc143_2603"
    INDEX 01 01:56:02
  TRACK 68 AUDIO
    TITLE "0:"
    INDEX 01 01:58:34
  TRACK 69 AUDIO
    TITLE "3:cjc143_2604"
    INDEX 01 01:59:40
  TRACK 70 AUDIO
    TITLE "0:"
    INDEX 01 02:02:56
  TRACK 71 AUDIO
    TITLE "3:cjc143_2605"
    INDEX 01 02:03:65
  TRACK 72 AUDIO
    TITLE "0:"
    INDEX 01 02:05:56
  TRACK 73 AUDIO
    TITLE "3:cjc143_2606"
    INDEX 01 02:06:65
  TRACK 74 AUDIO
    TITLE "0:"
    INDEX 01 02:08:52
  TRACK 75 AUDIO
    TITLE "3:cjc143_2607"
    INDEX 01 02:09:56
  TRACK 76 AUDIO
    TITLE "0:"
    INDEX 01 02:12:68
  TRACK 77 AUDIO
    TITLE "3:cjc143_2608"
    INDEX 01 02:14:00
  TRACK 78 AUDIO
    TITLE "0:"
    INDEX 01 02:16:03
